<mxfile host="app.diagrams.net" modified="2023-10-18T07:57:38.080Z" agent="Mozilla/5.0 (Windows NT 10.0; Win64; x64; rv:109.0) Gecko/20100101 Firefox/118.0" etag="mHxNzD-pzV603b67_EgG" version="21.6.7" type="device" pages="2">
  <diagram name="flux phone" id="RIGlRPVgMfuro2tlcC_w">
    <mxGraphModel dx="2901" dy="1106" grid="1" gridSize="10" guides="1" tooltips="1" connect="1" arrows="1" fold="1" page="1" pageScale="1" pageWidth="827" pageHeight="1169" math="0" shadow="0">
      <root>
        <mxCell id="0" />
        <mxCell id="1" parent="0" />
        <mxCell id="LoCmw2boxALlLqCzRrc9-21" value="&lt;div&gt;HTTP Get&lt;/div&gt;&lt;div&gt;ou&lt;/div&gt;&lt;div&gt;websocket&lt;br&gt;&lt;/div&gt;" style="edgeStyle=orthogonalEdgeStyle;rounded=0;orthogonalLoop=1;jettySize=auto;html=1;entryX=0;entryY=0.5;entryDx=0;entryDy=0;" edge="1" parent="1" source="LoCmw2boxALlLqCzRrc9-1" target="LoCmw2boxALlLqCzRrc9-19">
          <mxGeometry relative="1" as="geometry" />
        </mxCell>
        <mxCell id="LoCmw2boxALlLqCzRrc9-1" value="" style="verticalLabelPosition=bottom;verticalAlign=top;html=1;shadow=0;dashed=0;strokeWidth=1;shape=mxgraph.android.phone2;" vertex="1" parent="1">
          <mxGeometry x="-180" y="360" width="100" height="180" as="geometry" />
        </mxCell>
        <mxCell id="LoCmw2boxALlLqCzRrc9-3" value="Raspberry pi - Broker" style="swimlane;whiteSpace=wrap;html=1;" vertex="1" parent="1">
          <mxGeometry x="60" y="270" width="380" height="350" as="geometry" />
        </mxCell>
        <mxCell id="LoCmw2boxALlLqCzRrc9-6" value="insert" style="edgeStyle=orthogonalEdgeStyle;rounded=0;orthogonalLoop=1;jettySize=auto;html=1;" edge="1" parent="LoCmw2boxALlLqCzRrc9-3" source="LoCmw2boxALlLqCzRrc9-4" target="LoCmw2boxALlLqCzRrc9-5">
          <mxGeometry relative="1" as="geometry" />
        </mxCell>
        <mxCell id="LoCmw2boxALlLqCzRrc9-4" value="MQTT Sub" style="rounded=0;whiteSpace=wrap;html=1;" vertex="1" parent="LoCmw2boxALlLqCzRrc9-3">
          <mxGeometry x="220" y="145" width="120" height="60" as="geometry" />
        </mxCell>
        <mxCell id="LoCmw2boxALlLqCzRrc9-5" value="DB" style="rounded=0;whiteSpace=wrap;html=1;" vertex="1" parent="LoCmw2boxALlLqCzRrc9-3">
          <mxGeometry x="220" y="254.5" width="120" height="60" as="geometry" />
        </mxCell>
        <mxCell id="LoCmw2boxALlLqCzRrc9-10" value="subscribe" style="edgeStyle=orthogonalEdgeStyle;rounded=0;orthogonalLoop=1;jettySize=auto;html=1;" edge="1" parent="LoCmw2boxALlLqCzRrc9-3" source="LoCmw2boxALlLqCzRrc9-9" target="LoCmw2boxALlLqCzRrc9-4">
          <mxGeometry relative="1" as="geometry" />
        </mxCell>
        <mxCell id="LoCmw2boxALlLqCzRrc9-9" value="MQTT Broker" style="rounded=0;whiteSpace=wrap;html=1;" vertex="1" parent="LoCmw2boxALlLqCzRrc9-3">
          <mxGeometry x="220" y="40" width="120" height="60" as="geometry" />
        </mxCell>
        <mxCell id="LoCmw2boxALlLqCzRrc9-20" value="read" style="edgeStyle=orthogonalEdgeStyle;rounded=0;orthogonalLoop=1;jettySize=auto;html=1;entryX=0;entryY=0.5;entryDx=0;entryDy=0;" edge="1" parent="LoCmw2boxALlLqCzRrc9-3" source="LoCmw2boxALlLqCzRrc9-19" target="LoCmw2boxALlLqCzRrc9-5">
          <mxGeometry relative="1" as="geometry" />
        </mxCell>
        <mxCell id="LoCmw2boxALlLqCzRrc9-19" value="API" style="rounded=0;whiteSpace=wrap;html=1;" vertex="1" parent="LoCmw2boxALlLqCzRrc9-3">
          <mxGeometry x="20" y="150" width="120" height="60" as="geometry" />
        </mxCell>
        <mxCell id="LoCmw2boxALlLqCzRrc9-7" value="Raspberry pi - sensor1" style="swimlane;whiteSpace=wrap;html=1;" vertex="1" parent="1">
          <mxGeometry x="550" y="170" width="200" height="200" as="geometry" />
        </mxCell>
        <mxCell id="LoCmw2boxALlLqCzRrc9-8" value="MQTT Pub" style="rounded=0;whiteSpace=wrap;html=1;" vertex="1" parent="LoCmw2boxALlLqCzRrc9-7">
          <mxGeometry x="40" y="70" width="120" height="60" as="geometry" />
        </mxCell>
        <mxCell id="LoCmw2boxALlLqCzRrc9-12" value="I2C" style="edgeStyle=orthogonalEdgeStyle;rounded=0;orthogonalLoop=1;jettySize=auto;html=1;" edge="1" parent="1" source="LoCmw2boxALlLqCzRrc9-11" target="LoCmw2boxALlLqCzRrc9-8">
          <mxGeometry relative="1" as="geometry" />
        </mxCell>
        <mxCell id="LoCmw2boxALlLqCzRrc9-11" value="sensor 1" style="rounded=1;whiteSpace=wrap;html=1;" vertex="1" parent="1">
          <mxGeometry x="827" y="240" width="120" height="60" as="geometry" />
        </mxCell>
        <mxCell id="LoCmw2boxALlLqCzRrc9-13" value="Raspberry pi - sensorN" style="swimlane;whiteSpace=wrap;html=1;" vertex="1" parent="1">
          <mxGeometry x="550" y="430" width="200" height="200" as="geometry" />
        </mxCell>
        <mxCell id="LoCmw2boxALlLqCzRrc9-14" value="MQTT Pub" style="rounded=0;whiteSpace=wrap;html=1;" vertex="1" parent="LoCmw2boxALlLqCzRrc9-13">
          <mxGeometry x="40" y="70" width="120" height="60" as="geometry" />
        </mxCell>
        <mxCell id="LoCmw2boxALlLqCzRrc9-15" value="I2C" style="edgeStyle=orthogonalEdgeStyle;rounded=0;orthogonalLoop=1;jettySize=auto;html=1;" edge="1" parent="1" source="LoCmw2boxALlLqCzRrc9-16" target="LoCmw2boxALlLqCzRrc9-14">
          <mxGeometry relative="1" as="geometry" />
        </mxCell>
        <mxCell id="LoCmw2boxALlLqCzRrc9-16" value="sensor N" style="rounded=1;whiteSpace=wrap;html=1;" vertex="1" parent="1">
          <mxGeometry x="827" y="500" width="120" height="60" as="geometry" />
        </mxCell>
        <mxCell id="LoCmw2boxALlLqCzRrc9-17" value="publish" style="edgeStyle=orthogonalEdgeStyle;rounded=0;orthogonalLoop=1;jettySize=auto;html=1;entryX=1;entryY=0.5;entryDx=0;entryDy=0;" edge="1" parent="1" source="LoCmw2boxALlLqCzRrc9-8" target="LoCmw2boxALlLqCzRrc9-9">
          <mxGeometry relative="1" as="geometry" />
        </mxCell>
        <mxCell id="LoCmw2boxALlLqCzRrc9-18" value="publish" style="edgeStyle=orthogonalEdgeStyle;rounded=0;orthogonalLoop=1;jettySize=auto;html=1;entryX=1;entryY=0.5;entryDx=0;entryDy=0;" edge="1" parent="1" source="LoCmw2boxALlLqCzRrc9-14" target="LoCmw2boxALlLqCzRrc9-9">
          <mxGeometry relative="1" as="geometry" />
        </mxCell>
      </root>
    </mxGraphModel>
  </diagram>
  <diagram id="yilnRr96GevfeKioXc_q" name="flux serveur">
    <mxGraphModel dx="2901" dy="1106" grid="1" gridSize="10" guides="1" tooltips="1" connect="1" arrows="1" fold="1" page="1" pageScale="1" pageWidth="827" pageHeight="1169" math="0" shadow="0">
      <root>
        <mxCell id="0" />
        <mxCell id="1" parent="0" />
        <mxCell id="vGZbzgBhNEK2iHI_NChT-1" value="&lt;div&gt;HTTP Get&lt;/div&gt;&lt;div&gt;ou&lt;/div&gt;&lt;div&gt;websocket&lt;br&gt;&lt;/div&gt;" style="edgeStyle=orthogonalEdgeStyle;rounded=0;orthogonalLoop=1;jettySize=auto;html=1;entryX=0.5;entryY=1;entryDx=0;entryDy=0;" edge="1" parent="1" source="vGZbzgBhNEK2iHI_NChT-2" target="vGZbzgBhNEK2iHI_NChT-10">
          <mxGeometry relative="1" as="geometry" />
        </mxCell>
        <mxCell id="vGZbzgBhNEK2iHI_NChT-2" value="" style="verticalLabelPosition=bottom;verticalAlign=top;html=1;shadow=0;dashed=0;strokeWidth=1;shape=mxgraph.android.phone2;" vertex="1" parent="1">
          <mxGeometry x="-195" y="530" width="100" height="180" as="geometry" />
        </mxCell>
        <mxCell id="vGZbzgBhNEK2iHI_NChT-3" value="Raspberry pi - Broker" style="swimlane;whiteSpace=wrap;html=1;" vertex="1" parent="1">
          <mxGeometry x="60" y="270" width="380" height="130" as="geometry" />
        </mxCell>
        <mxCell id="vGZbzgBhNEK2iHI_NChT-5" value="MQTT Sub" style="rounded=0;whiteSpace=wrap;html=1;" vertex="1" parent="vGZbzgBhNEK2iHI_NChT-3">
          <mxGeometry x="10" y="40" width="120" height="60" as="geometry" />
        </mxCell>
        <mxCell id="vGZbzgBhNEK2iHI_NChT-7" value="subscribe" style="edgeStyle=orthogonalEdgeStyle;rounded=0;orthogonalLoop=1;jettySize=auto;html=1;" edge="1" parent="vGZbzgBhNEK2iHI_NChT-3" source="vGZbzgBhNEK2iHI_NChT-8" target="vGZbzgBhNEK2iHI_NChT-5">
          <mxGeometry relative="1" as="geometry" />
        </mxCell>
        <mxCell id="vGZbzgBhNEK2iHI_NChT-8" value="MQTT Broker" style="rounded=0;whiteSpace=wrap;html=1;" vertex="1" parent="vGZbzgBhNEK2iHI_NChT-3">
          <mxGeometry x="220" y="40" width="120" height="60" as="geometry" />
        </mxCell>
        <mxCell id="vGZbzgBhNEK2iHI_NChT-11" value="Raspberry pi - sensor1" style="swimlane;whiteSpace=wrap;html=1;" vertex="1" parent="1">
          <mxGeometry x="550" y="170" width="200" height="200" as="geometry" />
        </mxCell>
        <mxCell id="vGZbzgBhNEK2iHI_NChT-12" value="MQTT Pub" style="rounded=0;whiteSpace=wrap;html=1;" vertex="1" parent="vGZbzgBhNEK2iHI_NChT-11">
          <mxGeometry x="40" y="70" width="120" height="60" as="geometry" />
        </mxCell>
        <mxCell id="vGZbzgBhNEK2iHI_NChT-13" value="I2C" style="edgeStyle=orthogonalEdgeStyle;rounded=0;orthogonalLoop=1;jettySize=auto;html=1;" edge="1" parent="1" source="vGZbzgBhNEK2iHI_NChT-14" target="vGZbzgBhNEK2iHI_NChT-12">
          <mxGeometry relative="1" as="geometry" />
        </mxCell>
        <mxCell id="vGZbzgBhNEK2iHI_NChT-14" value="sensor 1" style="rounded=1;whiteSpace=wrap;html=1;" vertex="1" parent="1">
          <mxGeometry x="827" y="240" width="120" height="60" as="geometry" />
        </mxCell>
        <mxCell id="vGZbzgBhNEK2iHI_NChT-15" value="Raspberry pi - sensorN" style="swimlane;whiteSpace=wrap;html=1;" vertex="1" parent="1">
          <mxGeometry x="550" y="430" width="200" height="200" as="geometry" />
        </mxCell>
        <mxCell id="vGZbzgBhNEK2iHI_NChT-16" value="MQTT Pub" style="rounded=0;whiteSpace=wrap;html=1;" vertex="1" parent="vGZbzgBhNEK2iHI_NChT-15">
          <mxGeometry x="40" y="70" width="120" height="60" as="geometry" />
        </mxCell>
        <mxCell id="vGZbzgBhNEK2iHI_NChT-17" value="I2C" style="edgeStyle=orthogonalEdgeStyle;rounded=0;orthogonalLoop=1;jettySize=auto;html=1;" edge="1" parent="1" source="vGZbzgBhNEK2iHI_NChT-18" target="vGZbzgBhNEK2iHI_NChT-16">
          <mxGeometry relative="1" as="geometry" />
        </mxCell>
        <mxCell id="vGZbzgBhNEK2iHI_NChT-18" value="sensor N" style="rounded=1;whiteSpace=wrap;html=1;" vertex="1" parent="1">
          <mxGeometry x="827" y="500" width="120" height="60" as="geometry" />
        </mxCell>
        <mxCell id="vGZbzgBhNEK2iHI_NChT-19" value="publish" style="edgeStyle=orthogonalEdgeStyle;rounded=0;orthogonalLoop=1;jettySize=auto;html=1;entryX=1;entryY=0.5;entryDx=0;entryDy=0;" edge="1" parent="1" source="vGZbzgBhNEK2iHI_NChT-12" target="vGZbzgBhNEK2iHI_NChT-8">
          <mxGeometry relative="1" as="geometry" />
        </mxCell>
        <mxCell id="vGZbzgBhNEK2iHI_NChT-20" value="publish" style="edgeStyle=orthogonalEdgeStyle;rounded=0;orthogonalLoop=1;jettySize=auto;html=1;entryX=1;entryY=0.5;entryDx=0;entryDy=0;" edge="1" parent="1" source="vGZbzgBhNEK2iHI_NChT-16" target="vGZbzgBhNEK2iHI_NChT-8">
          <mxGeometry relative="1" as="geometry" />
        </mxCell>
        <mxCell id="vGZbzgBhNEK2iHI_NChT-21" value="Cloud DB Appli" style="swimlane;whiteSpace=wrap;html=1;" vertex="1" parent="1">
          <mxGeometry x="-260" y="140" width="230" height="280" as="geometry" />
        </mxCell>
        <mxCell id="vGZbzgBhNEK2iHI_NChT-22" value="DB" style="rounded=0;whiteSpace=wrap;html=1;" vertex="1" parent="vGZbzgBhNEK2iHI_NChT-21">
          <mxGeometry x="55" y="40" width="120" height="60" as="geometry" />
        </mxCell>
        <mxCell id="vGZbzgBhNEK2iHI_NChT-23" value="insert / read" style="edgeStyle=orthogonalEdgeStyle;rounded=0;orthogonalLoop=1;jettySize=auto;html=1;" edge="1" parent="vGZbzgBhNEK2iHI_NChT-21" source="vGZbzgBhNEK2iHI_NChT-10" target="vGZbzgBhNEK2iHI_NChT-22">
          <mxGeometry relative="1" as="geometry" />
        </mxCell>
        <mxCell id="vGZbzgBhNEK2iHI_NChT-10" value="API" style="rounded=0;whiteSpace=wrap;html=1;" vertex="1" parent="vGZbzgBhNEK2iHI_NChT-21">
          <mxGeometry x="55" y="170" width="120" height="60" as="geometry" />
        </mxCell>
        <mxCell id="vGZbzgBhNEK2iHI_NChT-4" value="HTTP POST" style="edgeStyle=orthogonalEdgeStyle;rounded=0;orthogonalLoop=1;jettySize=auto;html=1;entryX=1;entryY=0.5;entryDx=0;entryDy=0;" edge="1" parent="1" source="vGZbzgBhNEK2iHI_NChT-5" target="vGZbzgBhNEK2iHI_NChT-10">
          <mxGeometry relative="1" as="geometry" />
        </mxCell>
      </root>
    </mxGraphModel>
  </diagram>
</mxfile>
